<svg width="16" height="16" viewBox="0 0 16 16" fill="none" xmlns="http://www.w3.org/2000/svg">
<path d="M11.0142 15C9.6986 15.0019 8.39555 14.7441 7.17973 14.2415C5.96391 13.7389 4.85921 13.0013 3.92893 12.0711C2.99866 11.1408 2.26109 10.0361 1.75849 8.82027C1.25589 7.60445 0.99814 6.3014 1.00001 4.98579C1.00299 4.05976 1.37314 3.17271 2.02928 2.51923C2.68542 1.86576 3.57396 1.49921 4.5 1.5V1.5C4.65189 1.5 4.80108 1.54015 4.93245 1.61639C5.06382 1.69263 5.17271 1.80224 5.24806 1.93412L6.70945 4.49153C6.79758 4.64576 6.84304 4.82069 6.84115 4.99831C6.83926 5.17593 6.79009 5.34985 6.6987 5.50217L5.52506 7.45822C6.12887 8.79819 7.20181 9.87113 8.54178 10.4749V10.4749L10.4978 9.30131C10.6502 9.20992 10.8241 9.16075 11.0017 9.15886C11.1793 9.15698 11.3542 9.20243 11.5085 9.29057L14.0659 10.7519C14.1978 10.8273 14.3074 10.9362 14.3836 11.0675C14.4598 11.1989 14.5 11.3481 14.5 11.5V11.5C14.4974 12.425 14.1297 13.3115 13.477 13.9669C12.8242 14.6223 11.9392 14.9936 11.0142 15V15Z" stroke="white" stroke-width="2" stroke-linecap="round" stroke-linejoin="round"/>
</svg>
